<?xml version="1.0" encoding="UTF-8" standalone="no"?>
<svg
   version="1.1"
   width="1200"
   height="630"
   id="svg22"
   sodipodi:docname="og.svg"
   inkscape:version="1.4.2 (ebf0e940d0, 2025-05-08)"
   inkscape:export-filename="og.png"
   inkscape:export-xdpi="96"
   inkscape:export-ydpi="96"
   xmlns:inkscape="http://www.inkscape.org/namespaces/inkscape"
   xmlns:sodipodi="http://sodipodi.sourceforge.net/DTD/sodipodi-0.dtd"
   xmlns="http://www.w3.org/2000/svg"
   xmlns:svg="http://www.w3.org/2000/svg">
  <defs
     id="defs22">
    <rect
       x="309.78151"
       y="154.89076"
       width="787.36134"
       height="260.30252"
       id="rect1" />
    <rect
       x="309.78152"
       y="154.89076"
       width="787.36133"
       height="260.30252"
       id="rect1-9" />
  </defs>
  <sodipodi:namedview
     id="namedview22"
     pagecolor="#ffffff"
     bordercolor="#000000"
     borderopacity="0.25"
     inkscape:showpageshadow="2"
     inkscape:pageopacity="0.0"
     inkscape:pagecheckerboard="0"
     inkscape:deskcolor="#d1d1d1"
     inkscape:zoom="0.9296875"
     inkscape:cx="571.15966"
     inkscape:cy="248.47059"
     inkscape:window-width="2256"
     inkscape:window-height="1504"
     inkscape:window-x="0"
     inkscape:window-y="0"
     inkscape:window-maximized="1"
     inkscape:current-layer="svg21" />
  <svg
     viewBox="0 0 128 128"
     version="1.1"
     id="svg21"
     width="100%"
     height="100%"
     transform="translate(536)">
    <defs
       id="defs1" />
    <rect
       style="fill:#b7e2ff;stroke:#9fb4de;stroke-width:0.212711"
       id="rect22"
       width="243.5968"
       height="127.78729"
       x="-57.798409"
       y="0.10635584"
       sodipodi:insensitive="true" />
    <path
       d="m -23.077937,6.6686188 c -0.595,-0.5950003 -1.3875,-0.9225003 -2.2275,-0.9225003 -0.84,0 -1.6325,0.3275 -2.2275,0.9225003 -1.2275,1.2300002 -1.2275,3.2300002 0,4.4600002 0.595,0.595 1.3875,0.9225 2.2275,0.9225 0.8425,0 1.6325,-0.3275 2.23,-0.9225 1.2275,-1.23 1.2275,-3.23 -0.002,-4.4600002 z m -3.4725,0.9850002 c 0.3325,-0.3325002 0.775,-0.5150002 1.2425,-0.5150002 0.4675,0 0.9125,0.1825 1.245,0.5150002 0.6875,0.6875 0.6875,1.805 0,2.49 -0.3325,0.3325 -0.775,0.515 -1.245,0.515 -0.47,0 -0.9125,-0.1825 -1.2425,-0.515 -0.685,-0.685 -0.685,-1.8025 0,-2.49 z"
       fill="#e2a610"
       id="path1"
       style="stroke-width:0.25" />
    <path
       d="m -26.767937,12.483619 -2.1175,-2.12 1.51,-1.5125 c 0.335,-0.335 0.8775,-0.335 1.215,0 l 0.905,0.905 c 0.335,0.335 0.335,0.8775 0,1.2125 z"
       fill="#ffca28"
       id="path2"
       style="stroke-width:0.25" />
    <path
       d="m -26.222937,11.936119 c 0,0 0.3325,-0.6675 -0.56,-1.56 -0.8925,-0.8925 -1.5675,-0.55 -1.5675,-0.55 l -0.535,0.5375 2.1175,2.12 z"
       fill="#e2a610"
       id="path3"
       style="stroke-width:0.25" />
    <path
       d="m -22.970437,21.153619 a 14.5825,14.5925 0 1 1 -29.165,0 14.5825,14.5925 0 1 1 29.165,0 z"
       fill="#ffca28"
       id="path4"
       style="stroke-width:0.25" />
    <path
       d="m -25.730437,21.153619 a 11.8225,11.83 0 1 1 -23.645,0 11.8225,11.83 0 1 1 23.645,0 z"
       fill="#ffffff"
       id="path5"
       style="stroke-width:0.25" />
    <path
       d="m -35.950437,22.758619 -1.6025,6.9275 -1.6025,-6.9275 -6.925,-1.605 6.925,-1.6025 1.6025,-6.93 1.6025,6.93 6.925,1.6025 z"
       fill="#e0c3ab"
       id="path6"
       style="stroke-width:0.25" />
    <path
       d="m -35.287937,21.153619 3.765,6.035 -6.03,-3.7675 -6.03,3.7675 3.765,-6.035 -3.765,-6.0325 6.03,3.765 6.03,-3.765 z"
       fill="#b2947c"
       id="path7"
       style="stroke-width:0.25" />
    <path
       d="m -40.532937,26.481119 c 0,0 3.205,-2.2725 4.42,-3.4875 1.2175,-1.2125 3.7825,-4.78 3.7825,-4.78 0.6875,-0.7625 1.46,-2.69 1.675,-3.25 0.0225,-0.06 -0.035,-0.12 -0.095,-0.0975 -0.49,0.1875 -2.0425,0.8 -3.125,1.49 -1.3525,0.865 -3.7725,2.8425 -4.9,3.97 -1.1275,1.1275 -2.5925,3.3 -3.425,4.4825 -0.695,0.99 -1.565,2.83 -1.8275,3.4025 -0.03,0.0625 0.035,0.1275 0.0975,0.1 0.59,-0.2475 2.5025,-1.09 3.3975,-1.83 z"
       fill="#212121"
       opacity="0.32"
       id="path8"
       style="stroke-width:0.25" />
    <path
       d="m -32.480437,17.861119 c 0.715,-0.9125 1.3925,-2.71 1.5925,-3.2675 0.025,-0.0675 -0.04,-0.1325 -0.11,-0.11 -0.5575,0.2 -2.3525,0.88 -3.265,1.595 -1.0875,0.8525 -4.705,3.825 -4.705,3.825 l 2.6625,2.665 c 0.002,0 2.9725,-3.62 3.825,-4.7075 z"
       fill="#f44336"
       id="path9"
       style="stroke-width:0.25" />
    <path
       d="m -42.792937,24.616119 c -0.715,0.9125 -1.3925,2.71 -1.5925,3.2675 -0.025,0.0675 0.04,0.1325 0.11,0.11 0.5575,-0.2 2.3525,-0.88 3.265,-1.595 1.0875,-0.8525 4.705,-3.825 4.705,-3.825 l -2.665,-2.665 c 0,0 -2.97,3.6175 -3.8225,4.7075 z"
       fill="#2f7889"
       id="path10"
       style="stroke-width:0.25" />
    <path
       d="m -35.747937,21.241119 a 1.89,1.8925 0 1 1 -3.78,0 1.89,1.8925 0 1 1 3.78,0 z"
       fill="#94d1e0"
       id="path11"
       style="stroke-width:0.25" />
    <path
       d="m -30.530437,14.126119 v 0 c -0.335,-0.335 -0.335,-0.88 0,-1.215 l 0.89,-0.89 1.215,1.215 -0.8875,0.89 c -0.3375,0.3375 -0.8825,0.3375 -1.2175,0 z"
       fill="#f44336"
       id="path12"
       style="stroke-width:0.25" />
    <path
       d="m -44.575437,28.181119 v 0 c 0.335,0.335 0.335,0.88 0,1.215 l -0.89,0.89 -1.215,-1.215 0.8875,-0.89 c 0.3375,-0.335 0.8825,-0.335 1.2175,0 z"
       fill="#b2947c"
       id="path13"
       style="stroke-width:0.25" />
    <path
       d="m -27.620437,21.153619 v 0 c 0,-0.475 0.385,-0.86 0.86,-0.86 h 1.255 v 1.72 h -1.255 c -0.475,0 -0.86,-0.385 -0.86,-0.86 z"
       fill="#e0c3ab"
       id="path14"
       style="stroke-width:0.25" />
    <path
       d="m -47.482937,21.153619 v 0 c 0,0.475 -0.385,0.86 -0.86,0.86 h -1.255 v -1.72 h 1.255 c 0.475,0 0.86,0.385 0.86,0.86 z"
       fill="#e0c3ab"
       id="path15"
       style="stroke-width:0.25" />
    <path
       d="m -30.530437,28.181119 v 0 c 0.335,-0.335 0.88,-0.335 1.215,0 l 0.8875,0.89 -1.215,1.215 -0.89,-0.89 c -0.3325,-0.335 -0.3325,-0.8775 0.002,-1.215 z"
       fill="#b2947c"
       id="path16"
       style="stroke-width:0.25" />
    <path
       d="m -44.575437,14.126119 v 0 c -0.335,0.335 -0.88,0.335 -1.215,0 l -0.8875,-0.89 1.215,-1.215 0.89,0.89 c 0.3325,0.335 0.3325,0.88 -0.002,1.215 z"
       fill="#b2947c"
       id="path17"
       style="stroke-width:0.25" />
    <path
       d="m -37.552937,31.091119 v 0 c 0.475,0 0.86,0.385 0.86,0.86 v 1.2575 h -1.7175 v -1.2575 c -0.002,-0.475 0.3825,-0.86 0.8575,-0.86 z"
       fill="#e0c3ab"
       id="path18"
       style="stroke-width:0.25" />
    <path
       d="m -37.552937,11.216119 v 0 c -0.475,0 -0.86,-0.385 -0.86,-0.86 v -1.2575 h 1.7175 v 1.2575 c 0.002,0.475 -0.3825,0.86 -0.8575,0.86 z"
       fill="#e0c3ab"
       id="path19"
       style="stroke-width:0.25" />
    <path
       d="m -25.355437,21.153619 q 0,5.0555 -3.5725,8.63025 -3.5725,3.57475 -8.625,3.57475 -5.0525,0 -8.625,-3.57475 -3.5725,-3.57475 -3.5725,-8.63025 0,-5.0555 3.5725,-8.63025 3.5725,-3.57475 8.625,-3.57475 5.0525,0 8.625,3.57475 3.5725,3.57475 3.5725,8.63025 z m -0.75,0 q 0,-4.745 -3.353,-8.1 -3.35275,-3.355 -8.0945,-3.355 -4.74175,0 -8.0945,3.355 -3.353,3.355 -3.353,8.1 0,4.74475 3.353,8.1 3.35275,3.355 8.0945,3.355 4.74175,0 8.0945,-3.355 3.353,-3.35525 3.353,-8.1 z"
       fill="#e2a610"
       id="path20"
       style="stroke-width:0.25" />
    <path
       d="m -50.965437,20.976119 c 0,0 -0.53,-2.685 0.8825,-6.01 2.085,-4.905 6.5875,-7.6050002 11.43,-7.8150002 3.6325,-0.1575 5.7275,1.0400002 5.7275,1.0400002 0,0 -2.955,-0.2425 -4.9925,-0.1525 -4.915,0.2175 -8.33,2.46 -10.67,6.295 -1.925,3.16 -2.3775,6.6425 -2.3775,6.6425 z"
       fill="#fff59d"
       id="path21"
       style="stroke-width:0.25" />
    <text
       xml:space="preserve"
       transform="matrix(0.20317468,0,0,0.2031746,-79.435012,10.708496)"
       id="text1"
       style="font-style:normal;font-variant:normal;font-weight:normal;font-stretch:normal;font-size:146.667px;font-family:Serif;-inkscape-font-specification:'Serif, Normal';font-variant-ligatures:normal;font-variant-caps:normal;font-variant-numeric:normal;font-variant-east-asian:normal;text-align:center;writing-mode:lr-tb;direction:ltr;white-space:pre;shape-inside:url(#rect1);display:inline;fill:#6f73d2;fill-opacity:1;stroke:none;stroke-width:0.895748"
       x="358.14536"
       y="0"><tspan
         x="342.45196"
         y="284.65655"
         id="tspan4">Serif.blue</tspan></text>
    <text
       xml:space="preserve"
       transform="matrix(0.20317449,0,0,0.2031746,-79.065988,41.636014)"
       id="text1-5"
       style="font-style:normal;font-variant:normal;font-weight:normal;font-stretch:normal;font-size:48px;font-family:Serif;-inkscape-font-specification:'Serif, Normal';font-variant-ligatures:normal;font-variant-caps:normal;font-variant-numeric:normal;font-variant-east-asian:normal;text-align:start;writing-mode:lr-tb;direction:ltr;white-space:pre;shape-inside:url(#rect1-9);display:inline;fill:#6f73d2;fill-opacity:1;stroke:none;stroke-width:0.895748"
       x="323.03906"
       y="0"><tspan
         x="379.77832"
         y="197.35938"
         id="tspan6"><tspan
           style="text-align:center;text-anchor:middle"
           id="tspan5">little tweaks, projects, and </tspan></tspan><tspan
         x="428.3877"
         y="257.35938"
         id="tspan10"><tspan
           style="text-align:center;text-anchor:middle"
           id="tspan7">userscripts for atproto</tspan></tspan></text>
  </svg>
  <style
     id="style21">@media (prefers-color-scheme: light) { :root { filter: none; } }
@media (prefers-color-scheme: dark) { :root { filter: none; } }
</style>
</svg>
